<mxfile host="app.diagrams.net" agent="Mozilla/5.0 (Windows NT 10.0; Win64; x64) AppleWebKit/537.36 (KHTML, like Gecko) Chrome/131.0.0.0 Safari/537.36" version="25.0.3">
  <diagram name="Page-1" id="ZFxcqJ3blyVu-i58ZjUI">
    <mxGraphModel dx="1050" dy="522" grid="1" gridSize="10" guides="1" tooltips="1" connect="1" arrows="1" fold="1" page="1" pageScale="1" pageWidth="827" pageHeight="1169" math="0" shadow="0">
      <root>
        <mxCell id="0" />
        <mxCell id="1" parent="0" />
        <mxCell id="-sknMunt8sRPr3Xp3tY4-3" value="" style="edgeStyle=orthogonalEdgeStyle;rounded=0;orthogonalLoop=1;jettySize=auto;html=1;" edge="1" parent="1" source="-sknMunt8sRPr3Xp3tY4-1" target="-sknMunt8sRPr3Xp3tY4-2">
          <mxGeometry relative="1" as="geometry" />
        </mxCell>
        <mxCell id="-sknMunt8sRPr3Xp3tY4-1" value="เริ่มต้น" style="ellipse;whiteSpace=wrap;html=1;" vertex="1" parent="1">
          <mxGeometry x="359" y="30" width="110" height="40" as="geometry" />
        </mxCell>
        <mxCell id="-sknMunt8sRPr3Xp3tY4-5" value="" style="edgeStyle=orthogonalEdgeStyle;rounded=0;orthogonalLoop=1;jettySize=auto;html=1;" edge="1" parent="1" source="-sknMunt8sRPr3Xp3tY4-2" target="-sknMunt8sRPr3Xp3tY4-4">
          <mxGeometry relative="1" as="geometry" />
        </mxCell>
        <mxCell id="-sknMunt8sRPr3Xp3tY4-2" value="รับค่า day" style="shape=parallelogram;perimeter=parallelogramPerimeter;whiteSpace=wrap;html=1;fixedSize=1;" vertex="1" parent="1">
          <mxGeometry x="354" y="110" width="120" height="40" as="geometry" />
        </mxCell>
        <mxCell id="-sknMunt8sRPr3Xp3tY4-8" value="" style="edgeStyle=orthogonalEdgeStyle;rounded=0;orthogonalLoop=1;jettySize=auto;html=1;" edge="1" parent="1" source="-sknMunt8sRPr3Xp3tY4-4" target="-sknMunt8sRPr3Xp3tY4-6">
          <mxGeometry relative="1" as="geometry" />
        </mxCell>
        <mxCell id="-sknMunt8sRPr3Xp3tY4-4" value="sec = day * 86400" style="rounded=0;whiteSpace=wrap;html=1;" vertex="1" parent="1">
          <mxGeometry x="354" y="200" width="120" height="30" as="geometry" />
        </mxCell>
        <mxCell id="-sknMunt8sRPr3Xp3tY4-9" value="" style="edgeStyle=orthogonalEdgeStyle;rounded=0;orthogonalLoop=1;jettySize=auto;html=1;" edge="1" parent="1" source="-sknMunt8sRPr3Xp3tY4-6" target="-sknMunt8sRPr3Xp3tY4-7">
          <mxGeometry relative="1" as="geometry" />
        </mxCell>
        <mxCell id="-sknMunt8sRPr3Xp3tY4-6" value="แสดง sec" style="shape=parallelogram;perimeter=parallelogramPerimeter;whiteSpace=wrap;html=1;fixedSize=1;" vertex="1" parent="1">
          <mxGeometry x="354" y="280" width="120" height="40" as="geometry" />
        </mxCell>
        <mxCell id="-sknMunt8sRPr3Xp3tY4-7" value="จบ" style="ellipse;whiteSpace=wrap;html=1;" vertex="1" parent="1">
          <mxGeometry x="359" y="380" width="110" height="40" as="geometry" />
        </mxCell>
      </root>
    </mxGraphModel>
  </diagram>
</mxfile>
